<svg width="78" height="36" viewBox="0 0 78 36" fill="none" xmlns="http://www.w3.org/2000/svg">
<path d="M51.75 13.38H45C44.9337 13.38 44.8701 13.4063 44.8232 13.4532C44.7763 13.5001 44.75 13.5637 44.75 13.63V15C44.7499 15.0333 44.7567 15.0662 44.77 15.0967C44.7833 15.1272 44.8028 15.1546 44.8272 15.1772C44.8517 15.1998 44.8805 15.217 44.912 15.2278C44.9435 15.2386 44.9768 15.2428 45.01 15.24H47.25V22.89C47.2526 22.9599 47.2822 23.026 47.3325 23.0745C47.3829 23.123 47.4501 23.15 47.52 23.15H49.24C49.309 23.15 49.3751 23.1226 49.4238 23.0738C49.4726 23.0251 49.5 22.959 49.5 22.89V15.23H51.73C51.7952 15.2307 51.8584 15.2078 51.9081 15.1656C51.9577 15.1233 51.9903 15.0645 52 15V13.63C51.9975 13.5645 51.9704 13.5023 51.924 13.456C51.8777 13.4096 51.8155 13.3825 51.75 13.38Z" fill="#888888"/>
<path d="M58.92 13.43C58.046 13.3026 57.1631 13.2458 56.28 13.26C54.58 13.26 53.07 13.68 53.07 16.07V20.43C53.07 22.82 54.57 23.26 56.26 23.26C57.1496 23.2685 58.0387 23.2117 58.92 23.09C59.1 23.09 59.18 22.98 59.18 22.81V21.59C59.18 21.521 59.1526 21.4549 59.1038 21.4062C59.0551 21.3574 58.989 21.33 58.92 21.33H56.15C55.53 21.33 55.31 21.12 55.31 20.43V19H58.81C58.8799 19 58.9471 18.973 58.9975 18.9245C59.0478 18.876 59.0774 18.8099 59.08 18.74V17.53C59.0774 17.4601 59.0478 17.394 58.9975 17.3455C58.9471 17.297 58.8799 17.27 58.81 17.27H55.31V16.07C55.31 15.39 55.53 15.18 56.15 15.18H58.92C58.9899 15.1774 59.056 15.1478 59.1045 15.0975C59.153 15.0471 59.18 14.9799 59.18 14.91V13.69C59.18 13.52 59.1 13.45 58.92 13.43Z" fill="#888888"/>
<path d="M66 18.16L68.86 13.63C68.8635 13.6034 68.8635 13.5766 68.86 13.55C68.8587 13.5263 68.8528 13.5032 68.8425 13.4818C68.8323 13.4605 68.8179 13.4414 68.8003 13.4256C68.7826 13.4098 68.762 13.3976 68.7397 13.3898C68.7173 13.382 68.6936 13.3786 68.67 13.38H66.67C66.5995 13.3903 66.533 13.4188 66.4769 13.4626C66.4208 13.5064 66.377 13.5641 66.35 13.63L64.72 16.28L63.04 13.63C62.96 13.51 62.86 13.38 62.71 13.38H60.65C60.6012 13.3772 60.5532 13.3932 60.5159 13.4249C60.4787 13.4566 60.4551 13.5014 60.45 13.55C60.4432 13.5762 60.4432 13.6038 60.45 13.63L63.32 18.13L60.48 22.88C60.4714 22.9094 60.4714 22.9406 60.48 22.97C60.48 23.06 60.54 23.14 60.68 23.14H62.62C62.76 23.14 62.85 23.04 62.95 22.88L64.59 20.07L66.4 22.94C66.43 23.0037 66.4785 23.0568 66.5391 23.0925C66.5998 23.1281 66.6698 23.1447 66.74 23.14H68.83C68.93 23.14 69 23.09 69 23.01C69.0102 22.9673 69.0102 22.9227 69 22.88L66 18.16Z" fill="#888888"/>
<path d="M43.53 13.41H41.62C41.5718 13.4095 41.525 13.4264 41.4882 13.4576C41.4515 13.4888 41.4272 13.5323 41.42 13.58L39.51 20.64C39.51 20.78 39.45 20.83 39.33 20.83C39.21 20.83 39.17 20.78 39.15 20.64L37.24 13.58C37.2309 13.5332 37.2062 13.4908 37.1698 13.4599C37.1335 13.429 37.0877 13.4114 37.04 13.41H35.16C35.1337 13.41 35.1077 13.4152 35.0835 13.4252C35.0592 13.4353 35.0371 13.45 35.0186 13.4686C35 13.4872 34.9853 13.5092 34.9752 13.5335C34.9652 13.5577 34.96 13.5837 34.96 13.61V13.66C34.96 13.66 37.29 21.75 37.32 21.83C37.4466 22.257 37.712 22.6296 38.0743 22.8886C38.4366 23.1477 38.875 23.2784 39.32 23.26C39.7637 23.279 40.2011 23.1497 40.5632 22.8926C40.9254 22.6355 41.1916 22.2652 41.32 21.84L43.63 13.66C43.6399 13.637 43.6452 13.6123 43.6455 13.5873C43.6458 13.5623 43.6412 13.5375 43.6319 13.5142C43.6226 13.491 43.6088 13.4698 43.5914 13.4519C43.5739 13.4341 43.553 13.4198 43.53 13.41Z" fill="#888888"/>
<path d="M30.64 8H13.17C12.86 8.00034 12.5554 8.08073 12.2856 8.23339C12.0158 8.38604 11.79 8.60578 11.63 8.87133C11.4701 9.13688 11.3815 9.43923 11.3727 9.74909C11.3639 10.059 11.4353 10.3658 11.58 10.64L13.33 14H10.16C9.86082 13.9997 9.5731 14.115 9.35694 14.3219C9.14078 14.5287 9.0129 14.8111 9 15.11C9.00159 15.2976 9.04606 15.4823 9.13 15.65L14.75 26.29C14.8215 26.426 14.9192 26.5464 15.0376 26.6443C15.156 26.7422 15.2927 26.8156 15.4397 26.8603C15.5866 26.9049 15.741 26.92 15.8939 26.9045C16.0467 26.889 16.195 26.8433 16.33 26.77C16.5383 26.6669 16.7069 26.4983 16.81 26.29L18.34 23.42L20.25 27C20.4032 27.2887 20.6322 27.5303 20.9123 27.6988C21.1924 27.8672 21.5131 27.9563 21.84 27.9563C22.1669 27.9563 22.4876 27.8672 22.7677 27.6988C23.0478 27.5303 23.2768 27.2887 23.43 27L32.19 10.52C32.32 10.2548 32.3807 9.96108 32.3666 9.66612C32.3524 9.37115 32.2639 9.08456 32.1092 8.83303C31.9545 8.5815 31.7386 8.3732 31.4817 8.22755C31.2248 8.0819 30.9353 8.00362 30.64 8ZM22.79 15L19 22.15C18.9025 22.3309 18.7374 22.466 18.5408 22.526C18.3442 22.5859 18.1319 22.5658 17.95 22.47C17.8154 22.3955 17.7045 22.2846 17.63 22.15L13.89 15.07C13.8256 14.9524 13.7929 14.82 13.7954 14.6859C13.7979 14.5518 13.8353 14.4207 13.904 14.3055C13.9727 14.1904 14.0703 14.0951 14.1871 14.0293C14.3039 13.9634 14.4359 13.9292 14.57 13.93H22.11C22.3098 13.9326 22.5006 14.0139 22.6409 14.1561C22.7813 14.2983 22.86 14.4902 22.86 14.69C22.8597 14.7972 22.8358 14.9031 22.79 15Z" fill="#888888"/>
</svg>
